<?xml version="1.0" encoding="UTF-8" standalone="no"?>
<!-- Created with Inkscape (http://www.inkscape.org/) -->

<svg
   xmlns:dc="http://purl.org/dc/elements/1.1/"
   xmlns:cc="http://creativecommons.org/ns#"
   xmlns:rdf="http://www.w3.org/1999/02/22-rdf-syntax-ns#"
   xmlns:svg="http://www.w3.org/2000/svg"
   xmlns="http://www.w3.org/2000/svg"
   xmlns:sodipodi="http://sodipodi.sourceforge.net/DTD/sodipodi-0.dtd"
   xmlns:inkscape="http://www.inkscape.org/namespaces/inkscape"
   width="152.28357mm"
   height="125.2493mm"
   viewBox="0 0 152.28357 125.2493"
   version="1.1"
   id="svg8"
   inkscape:version="0.92.3 (2405546, 2018-03-11)"
   sodipodi:docname="pi-fork.svg">
  <defs
     id="defs2" />
  <sodipodi:namedview
     id="base"
     pagecolor="#ffffff"
     bordercolor="#666666"
     borderopacity="1.0"
     inkscape:pageopacity="0.0"
     inkscape:pageshadow="2"
     inkscape:zoom="0.35"
     inkscape:cx="-402.48588"
     inkscape:cy="438.9841"
     inkscape:document-units="mm"
     inkscape:current-layer="layer1"
     showgrid="false"
     fit-margin-top="0"
     fit-margin-left="0"
     fit-margin-right="0"
     fit-margin-bottom="0"
     showborder="false"
     inkscape:window-width="1920"
     inkscape:window-height="1016"
     inkscape:window-x="0"
     inkscape:window-y="27"
     inkscape:window-maximized="1" />
  <metadata
     id="metadata5">
    <rdf:RDF>
      <cc:Work
         rdf:about="">
        <dc:format>image/svg+xml</dc:format>
        <dc:type
           rdf:resource="http://purl.org/dc/dcmitype/StillImage" />
        <dc:title></dc:title>
      </cc:Work>
    </rdf:RDF>
  </metadata>
  <g
     inkscape:label="Layer 1"
     inkscape:groupmode="layer"
     id="layer1"
     transform="translate(-32.427938,-97.410705)">
    <g
       id="g918">
      <g
         transform="matrix(9.6761905,0,0,9.6761905,32.430357,88.277919)"
         id="g876">
        <g
           id="g819">
	<g
   id="g817">
		<path
   style="fill:#1a1a1a"
   inkscape:connector-curvature="0"
   d="m 13.707,3.034 c -0.391,-0.391 -1.023,-0.391 -1.414,0 -1.264,1.264 -3.321,1.264 -4.586,0 -2.045,-2.044 -5.371,-2.042 -7.414,0 -0.391,0.391 -0.391,1.023 0,1.414 0.391,0.391 1.023,0.391 1.414,0 C 2.081,4.074 2.527,3.824 3,3.672 v 7.827 c 0,0.553 0.447,1 1,1 0.553,0 1,-0.447 1,-1 V 3.673 C 5.472,3.825 5.919,4.074 6.293,4.448 7.061,5.215 8.008,5.693 9,5.885 v 5.614 c 0,0.553 0.447,1 1,1 0.553,0 1,-0.447 1,-1 V 5.885 c 0.992,-0.191 1.939,-0.67 2.707,-1.437 0.391,-0.39 0.391,-1.023 0,-1.414 z"
   id="path815" />

	</g>

</g>
        <g
           id="g821">
</g>
        <g
           id="g823">
</g>
        <g
           id="g825">
</g>
        <g
           id="g827">
</g>
        <g
           id="g829">
</g>
        <g
           id="g831">
</g>
        <g
           id="g833">
</g>
        <g
           id="g835">
</g>
        <g
           id="g837">
</g>
        <g
           id="g839">
</g>
        <g
           id="g841">
</g>
        <g
           id="g843">
</g>
        <g
           id="g845">
</g>
        <g
           id="g847">
</g>
        <g
           id="g849">
</g>
      </g>
      <ellipse
         ry="13.125605"
         rx="13.421346"
         cy="114.4659"
         cx="167.36058"
         id="path886"
         style="fill:#ffffff;fill-opacity:1;stroke:#1a1a1a;stroke-width:7.85917425;stroke-linecap:round;stroke-linejoin:round;stroke-miterlimit:4;stroke-dasharray:none;stroke-opacity:1" />
      <ellipse
         style="fill:#ffffff;fill-opacity:1;stroke:#1a1a1a;stroke-width:7.85917425;stroke-linecap:round;stroke-linejoin:round;stroke-miterlimit:4;stroke-dasharray:none;stroke-opacity:1"
         id="ellipse888"
         cx="129.54193"
         cy="205.60481"
         rx="13.421346"
         ry="13.125605" />
      <ellipse
         ry="13.125605"
         rx="13.421346"
         cy="205.60481"
         cx="70.804428"
         id="ellipse890"
         style="fill:#ffffff;fill-opacity:1;stroke:#1a1a1a;stroke-width:7.85917425;stroke-linecap:round;stroke-linejoin:round;stroke-miterlimit:4;stroke-dasharray:none;stroke-opacity:1" />
    </g>
  </g>
</svg>
